G04*
G04 #@! TF.GenerationSoftware,Altium Limited,Altium Designer,23.4.1 (23)*
G04*
G04 Layer_Color=2752767*
%FSLAX42Y42*%
%MOMM*%
G71*
G04*
G04 #@! TF.SameCoordinates,1A2849D8-77FB-4551-9540-3E4ADE2B4543*
G04*
G04*
G04 #@! TF.FilePolarity,Positive*
G04*
G01*
G75*
%ADD53C,0.13*%
%ADD54C,0.17*%
%ADD55C,0.10*%
D53*
X4165Y2087D02*
X4191Y2138D01*
X4165Y2189D01*
X4216Y2163D01*
X4267Y2189D01*
X4241Y2138D01*
X4267Y2087D01*
X4216Y2113D01*
X4165Y2087D01*
X4673Y2849D02*
X4699Y2900D01*
X4673Y2951D01*
X4724Y2925D01*
X4775Y2951D01*
X4749Y2900D01*
X4775Y2849D01*
X4724Y2875D01*
X4673Y2849D01*
X949Y4049D02*
X975D01*
X1000Y4075D01*
X1025Y4049D01*
X1051D01*
Y4075D01*
X1025Y4100D01*
X1051Y4125D01*
Y4151D01*
X1025D01*
X1000Y4125D01*
X975Y4151D01*
X949D01*
Y4125D01*
X975Y4100D01*
X949Y4075D01*
Y4049D01*
X4330Y4385D02*
X4279Y4487D01*
X4381D01*
X4330Y4385D01*
Y4131D02*
X4279Y4233D01*
X4381D01*
X4330Y4131D01*
Y3877D02*
X4279Y3979D01*
X4381D01*
X4330Y3877D01*
Y4639D02*
X4279Y4741D01*
X4381D01*
X4330Y4639D01*
X200Y149D02*
X149Y251D01*
X251D01*
X200Y149D01*
Y170D02*
X170Y230D01*
X230D01*
X200Y170D01*
X6800Y149D02*
X6749Y251D01*
X6851D01*
X6800Y149D01*
Y170D02*
X6770Y230D01*
X6830D01*
X6800Y170D01*
Y5049D02*
X6749Y5151D01*
X6851D01*
X6800Y5049D01*
Y5070D02*
X6770Y5130D01*
X6830D01*
X6800Y5070D01*
X200Y5049D02*
X149Y5151D01*
X251D01*
X200Y5049D01*
Y5070D02*
X170Y5130D01*
X230D01*
X200Y5070D01*
X6449Y705D02*
Y807D01*
X6551D01*
Y705D01*
X6449D01*
X6470Y726D02*
Y786D01*
X6530D01*
Y726D01*
X6470D01*
X6449Y1193D02*
Y1295D01*
X6551D01*
Y1193D01*
X6449D01*
X6470Y1214D02*
Y1274D01*
X6530D01*
Y1214D01*
X6470D01*
X4995Y600D02*
X5046Y651D01*
X5097Y600D01*
X5046Y549D01*
X4995Y600D01*
X5503D02*
X5554Y651D01*
X5605Y600D01*
X5554Y549D01*
X5503Y600D01*
X4995Y1400D02*
X5046Y1451D01*
X5097Y1400D01*
X5046Y1349D01*
X4995Y1400D01*
X5503D02*
X5554Y1451D01*
X5605Y1400D01*
X5554Y1349D01*
X5503Y1400D01*
X2300Y1203D02*
X2249Y1305D01*
X2351D01*
X2300Y1203D01*
Y441D02*
X2249Y543D01*
X2351D01*
X2300Y441D01*
Y695D02*
X2249Y797D01*
X2351D01*
X2300Y695D01*
Y949D02*
X2249Y1051D01*
X2351D01*
X2300Y949D01*
X595Y549D02*
Y651D01*
X697D01*
Y549D01*
X595D01*
X849D02*
Y651D01*
X951D01*
Y549D01*
X849D01*
X1103D02*
Y651D01*
X1205D01*
Y549D01*
X1103D01*
X285Y4572D02*
Y4546D01*
X335D01*
Y4572D01*
X361D01*
Y4622D01*
X335D01*
Y4648D01*
X285D01*
Y4622D01*
X259D01*
Y4572D01*
X285D01*
Y4318D02*
Y4292D01*
X335D01*
Y4318D01*
X361D01*
Y4368D01*
X335D01*
Y4394D01*
X285D01*
Y4368D01*
X259D01*
Y4318D01*
X285D01*
X949Y4557D02*
X975D01*
X1000Y4583D01*
X1025Y4557D01*
X1051D01*
Y4583D01*
X1025Y4608D01*
X1051Y4633D01*
Y4659D01*
X1025D01*
X1000Y4633D01*
X975Y4659D01*
X949D01*
Y4633D01*
X975Y4608D01*
X949Y4583D01*
Y4557D01*
Y4303D02*
X975D01*
X1000Y4329D01*
X1025Y4303D01*
X1051D01*
Y4329D01*
X1025Y4354D01*
X1051Y4379D01*
Y4405D01*
X1025D01*
X1000Y4379D01*
X975Y4405D01*
X949D01*
Y4379D01*
X975Y4354D01*
X949Y4329D01*
Y4303D01*
X1969Y3675D02*
X2020Y3726D01*
X2071Y3675D01*
X2020Y3624D01*
X1969Y3675D01*
Y3325D02*
X2020Y3376D01*
X2071Y3325D01*
X2020Y3274D01*
X1969Y3325D01*
X1949Y4350D02*
X2000Y4401D01*
X2051Y4350D01*
X2000Y4299D01*
X1949Y4350D01*
Y4700D02*
X2000Y4751D01*
X2051Y4700D01*
X2000Y4649D01*
X1949Y4700D01*
X3049Y4500D02*
X3100Y4551D01*
X3151Y4500D01*
X3100Y4449D01*
X3049Y4500D01*
X3399D02*
X3450Y4551D01*
X3501Y4500D01*
X3450Y4449D01*
X3399Y4500D01*
X2641Y2087D02*
X2667Y2138D01*
X2641Y2189D01*
X2692Y2163D01*
X2743Y2189D01*
X2717Y2138D01*
X2743Y2087D01*
X2692Y2113D01*
X2641Y2087D01*
X2895D02*
X2921Y2138D01*
X2895Y2189D01*
X2946Y2163D01*
X2997Y2189D01*
X2971Y2138D01*
X2997Y2087D01*
X2946Y2113D01*
X2895Y2087D01*
X3149D02*
X3175Y2138D01*
X3149Y2189D01*
X3200Y2163D01*
X3251Y2189D01*
X3225Y2138D01*
X3251Y2087D01*
X3200Y2113D01*
X3149Y2087D01*
X3403D02*
X3429Y2138D01*
X3403Y2189D01*
X3454Y2163D01*
X3505Y2189D01*
X3479Y2138D01*
X3505Y2087D01*
X3454Y2113D01*
X3403Y2087D01*
X3657D02*
X3683Y2138D01*
X3657Y2189D01*
X3708Y2163D01*
X3759Y2189D01*
X3733Y2138D01*
X3759Y2087D01*
X3708Y2113D01*
X3657Y2087D01*
X3911D02*
X3937Y2138D01*
X3911Y2189D01*
X3962Y2163D01*
X4013Y2189D01*
X3987Y2138D01*
X4013Y2087D01*
X3962Y2113D01*
X3911Y2087D01*
X4419D02*
X4445Y2138D01*
X4419Y2189D01*
X4470Y2163D01*
X4521Y2189D01*
X4495Y2138D01*
X4521Y2087D01*
X4470Y2113D01*
X4419Y2087D01*
X4673D02*
X4699Y2138D01*
X4673Y2189D01*
X4724Y2163D01*
X4775Y2189D01*
X4749Y2138D01*
X4775Y2087D01*
X4724Y2113D01*
X4673Y2087D01*
X4927D02*
X4953Y2138D01*
X4927Y2189D01*
X4978Y2163D01*
X5029Y2189D01*
X5003Y2138D01*
X5029Y2087D01*
X4978Y2113D01*
X4927Y2087D01*
X5181D02*
X5207Y2138D01*
X5181Y2189D01*
X5232Y2163D01*
X5283Y2189D01*
X5257Y2138D01*
X5283Y2087D01*
X5232Y2113D01*
X5181Y2087D01*
X5435D02*
X5461Y2138D01*
X5435Y2189D01*
X5486Y2163D01*
X5537Y2189D01*
X5511Y2138D01*
X5537Y2087D01*
X5486Y2113D01*
X5435Y2087D01*
X5689D02*
X5715Y2138D01*
X5689Y2189D01*
X5740Y2163D01*
X5791Y2189D01*
X5765Y2138D01*
X5791Y2087D01*
X5740Y2113D01*
X5689Y2087D01*
X5943D02*
X5969Y2138D01*
X5943Y2189D01*
X5994Y2163D01*
X6045Y2189D01*
X6019Y2138D01*
X6045Y2087D01*
X5994Y2113D01*
X5943Y2087D01*
X2641Y2849D02*
X2667Y2900D01*
X2641Y2951D01*
X2692Y2925D01*
X2743Y2951D01*
X2717Y2900D01*
X2743Y2849D01*
X2692Y2875D01*
X2641Y2849D01*
X2895D02*
X2921Y2900D01*
X2895Y2951D01*
X2946Y2925D01*
X2997Y2951D01*
X2971Y2900D01*
X2997Y2849D01*
X2946Y2875D01*
X2895Y2849D01*
X3149D02*
X3175Y2900D01*
X3149Y2951D01*
X3200Y2925D01*
X3251Y2951D01*
X3225Y2900D01*
X3251Y2849D01*
X3200Y2875D01*
X3149Y2849D01*
X3403D02*
X3429Y2900D01*
X3403Y2951D01*
X3454Y2925D01*
X3505Y2951D01*
X3479Y2900D01*
X3505Y2849D01*
X3454Y2875D01*
X3403Y2849D01*
X3657D02*
X3683Y2900D01*
X3657Y2951D01*
X3708Y2925D01*
X3759Y2951D01*
X3733Y2900D01*
X3759Y2849D01*
X3708Y2875D01*
X3657Y2849D01*
X3911D02*
X3937Y2900D01*
X3911Y2951D01*
X3962Y2925D01*
X4013Y2951D01*
X3987Y2900D01*
X4013Y2849D01*
X3962Y2875D01*
X3911Y2849D01*
X4165D02*
X4191Y2900D01*
X4165Y2951D01*
X4216Y2925D01*
X4267Y2951D01*
X4241Y2900D01*
X4267Y2849D01*
X4216Y2875D01*
X4165Y2849D01*
X4419D02*
X4445Y2900D01*
X4419Y2951D01*
X4470Y2925D01*
X4521Y2951D01*
X4495Y2900D01*
X4521Y2849D01*
X4470Y2875D01*
X4419Y2849D01*
X4927D02*
X4953Y2900D01*
X4927Y2951D01*
X4978Y2925D01*
X5029Y2951D01*
X5003Y2900D01*
X5029Y2849D01*
X4978Y2875D01*
X4927Y2849D01*
X5181D02*
X5207Y2900D01*
X5181Y2951D01*
X5232Y2925D01*
X5283Y2951D01*
X5257Y2900D01*
X5283Y2849D01*
X5232Y2875D01*
X5181Y2849D01*
X5435D02*
X5461Y2900D01*
X5435Y2951D01*
X5486Y2925D01*
X5537Y2951D01*
X5511Y2900D01*
X5537Y2849D01*
X5486Y2875D01*
X5435Y2849D01*
X5689D02*
X5715Y2900D01*
X5689Y2951D01*
X5740Y2925D01*
X5791Y2951D01*
X5765Y2900D01*
X5791Y2849D01*
X5740Y2875D01*
X5689Y2849D01*
X5943D02*
X5969Y2900D01*
X5943Y2951D01*
X5994Y2925D01*
X6045Y2951D01*
X6019Y2900D01*
X6045Y2849D01*
X5994Y2875D01*
X5943Y2849D01*
X5980Y4209D02*
X6005Y4235D01*
X6031D01*
X6005Y4260D01*
X6031Y4285D01*
X6005D01*
X5980Y4311D01*
X5955Y4285D01*
X5929D01*
X5955Y4260D01*
X5929Y4235D01*
X5955D01*
X5980Y4209D01*
X5480D02*
X5505Y4235D01*
X5531D01*
X5505Y4260D01*
X5531Y4285D01*
X5505D01*
X5480Y4311D01*
X5455Y4285D01*
X5429D01*
X5455Y4260D01*
X5429Y4235D01*
X5455D01*
X5480Y4209D01*
D54*
X3201Y1400D02*
G03*
X3201Y1400I-51J0D01*
G01*
X4101D02*
G03*
X4101Y1400I-51J0D01*
G01*
X3201Y600D02*
G03*
X3201Y600I-51J0D01*
G01*
X4101D02*
G03*
X4101Y600I-51J0D01*
G01*
X501Y1200D02*
G03*
X501Y1200I-51J0D01*
G01*
X1401D02*
G03*
X1401Y1200I-51J0D01*
G01*
X501Y2200D02*
G03*
X501Y2200I-51J0D01*
G01*
X1401D02*
G03*
X1401Y2200I-51J0D01*
G01*
X4111Y3740D02*
G03*
X4111Y3740I-51J0D01*
G01*
D55*
X4090D02*
G03*
X4090Y3740I-30J0D01*
G01*
M02*
