M48
;Layer_Color=9474304
;FILE_FORMAT=2:4
INCH,TZ
;TYPE=PLATED
T1F00S00C0.0118
T2F00S00C0.0276
T3F00S00C0.0315
T4F00S00C0.0335
T5F00S00C0.0339
T6F00S00C0.0350
T7F00S00C0.0354
T8F00S00C0.0374
T9F00S00C0.0402
T10F00S00C0.0472
;TYPE=NON_PLATED
T11F00S00C0.0984
%
T01
X15984Y14724
T02
X25591Y2976
Y4898
T03
X19866Y2362
X21866
Y5512
X19866
X13583Y17717
X12205
X7874Y17126
Y18504
X7953Y14468
Y13091
T04
X12402Y2362
Y5512
X15945
Y2362
X5315Y4724
X1772
Y8661
X5315
T05
X9055Y1937
Y2937
Y3937
Y4937
X17047Y15465
Y16465
Y17465
Y18465
T06
X2543Y2362
X3543
X4543
T07
X10598Y8417
X11598
X12598
X13598
X14598
X15598
X16598
X17598
X18598
X19598
X20598
X21598
Y11417
X20598
X19598
X18598
X17598
X16598
X15598
X14598
X13598
X12598
X11598
X10598
X22598
X23598
Y8417
X22598
T08
X21575Y16772
X23543
T09
X1220Y17098
Y18098
T10
X3937Y16142
Y17142
Y18142
T11
X26772Y787
X787
Y20079
X26772
M30
