G04*
G04 #@! TF.GenerationSoftware,Altium Limited,Altium Designer,23.4.1 (23)*
G04*
G04 Layer_Color=16711935*
%FSLAX42Y42*%
%MOMM*%
G71*
G04*
G04 #@! TF.SameCoordinates,1A2849D8-77FB-4551-9540-3E4ADE2B4543*
G04*
G04*
G04 #@! TF.FilePolarity,Positive*
G04*
G01*
G75*
%ADD11C,0.20*%
%ADD12C,0.15*%
%ADD51C,0.10*%
D11*
X443Y4197D02*
Y4743D01*
X176Y4197D02*
X443D01*
X176D02*
Y4743D01*
X443D01*
D12*
X2445Y3500D02*
G03*
X2445Y3500I-425J0D01*
G01*
X2425Y4525D02*
G03*
X2425Y4525I-425J0D01*
G01*
X3700Y4500D02*
G03*
X3700Y4500I-425J0D01*
G01*
X6530Y4260D02*
G03*
X6530Y4260I-800J0D01*
G01*
D51*
X6640Y497D02*
G03*
X6685Y542I0J45D01*
G01*
X6315D02*
G03*
X6360Y497I45J0D01*
G01*
Y1502D02*
G03*
X6315Y1457I0J-45D01*
G01*
X6685D02*
G03*
X6640Y1502I-45J0D01*
G01*
X6650Y432D02*
G03*
X6733Y515I0J82D01*
G01*
X6268Y515D02*
G03*
X6350Y432I82J-0D01*
G01*
X6350Y1567D02*
G03*
X6268Y1485I0J-82D01*
G01*
X6733D02*
G03*
X6650Y1567I-82J0D01*
G01*
X2718Y2249D02*
G03*
X2718Y2249I-50J0D01*
G01*
X4203Y3788D02*
Y4829D01*
X4457D01*
Y3788D02*
Y4829D01*
X4203Y3788D02*
X4457D01*
X3285Y1280D02*
Y1520D01*
X3915D01*
X3285Y1280D02*
X3915D01*
Y1520D01*
X6350Y1567D02*
X6350Y1567D01*
X6650D01*
X6360Y1502D02*
X6640D01*
X6350Y432D02*
X6650D01*
X6360Y497D02*
X6640D01*
X6685Y543D02*
Y1457D01*
X6315Y543D02*
Y1457D01*
X6733Y515D02*
Y1485D01*
X6268Y515D02*
Y1485D01*
X4944Y396D02*
Y803D01*
X5656Y396D02*
Y803D01*
X4944D02*
X5656D01*
X4944Y396D02*
X5656D01*
X4944Y1197D02*
Y1603D01*
X5656Y1197D02*
Y1603D01*
X4944D02*
X5656D01*
X4944Y1197D02*
X5656D01*
X3285Y480D02*
Y720D01*
X3915D01*
X3285Y480D02*
X3915D01*
Y720D01*
X2173Y353D02*
X2427D01*
Y1394D01*
X2173D02*
X2427D01*
X2173Y353D02*
Y1394D01*
X585Y1080D02*
Y1320D01*
X1215D01*
X585Y1080D02*
X1215D01*
Y1320D01*
X507Y727D02*
X1294D01*
X507Y473D02*
X1294D01*
X507D02*
Y727D01*
X1294Y473D02*
Y727D01*
X585Y2080D02*
Y2320D01*
X1215D01*
X585Y2080D02*
X1215D01*
Y2320D01*
X1020Y3834D02*
Y4874D01*
X830Y3834D02*
X1290D01*
Y4874D01*
X830Y4874D02*
X1290D01*
X830Y3834D02*
Y4874D01*
X2578Y2159D02*
X6108D01*
X2578Y2879D02*
X6108D01*
X2578Y2159D02*
Y2879D01*
X6108Y2159D02*
Y2879D01*
M02*
