G04*
G04 #@! TF.GenerationSoftware,Altium Limited,Altium Designer,23.4.1 (23)*
G04*
G04 Layer_Physical_Order=1*
G04 Layer_Color=255*
%FSLAX42Y42*%
%MOMM*%
G71*
G04*
G04 #@! TF.SameCoordinates,1A2849D8-77FB-4551-9540-3E4ADE2B4543*
G04*
G04*
G04 #@! TF.FilePolarity,Positive*
G04*
G01*
G75*
%ADD27R,1.57X1.57*%
%ADD28C,1.57*%
%ADD30R,1.30X1.30*%
%ADD31C,1.30*%
%ADD32R,1.30X1.30*%
%ADD34C,1.45*%
%ADD35R,1.45X1.45*%
%ADD37C,0.50*%
%ADD38C,0.30*%
%ADD39C,1.50*%
%ADD40C,1.80*%
%ADD41C,1.40*%
%ADD42R,1.40X1.40*%
%ADD43C,1.35*%
%ADD44R,1.35X1.35*%
%ADD45C,1.20*%
%ADD46R,1.20X1.20*%
%ADD47R,1.40X1.40*%
%ADD48R,1.80X1.80*%
%ADD49R,1.50X1.50*%
%ADD50C,0.60*%
G36*
X6974Y4626D02*
Y674D01*
X6326Y26D01*
X674D01*
X26Y674D01*
Y4626D01*
X674Y5274D01*
X6326D01*
X6974Y4626D01*
D02*
G37*
%LPC*%
G36*
X6010Y4888D02*
X6010Y4888D01*
X5210D01*
X5210Y4888D01*
X5199Y4886D01*
X5190Y4880D01*
X4774Y4464D01*
X4408D01*
X4407Y4468D01*
X4396Y4487D01*
X4381Y4502D01*
X4362Y4513D01*
X4341Y4519D01*
X4319D01*
X4298Y4513D01*
X4279Y4502D01*
X4264Y4487D01*
X4253Y4468D01*
X4247Y4447D01*
Y4425D01*
X4253Y4404D01*
X4264Y4385D01*
X4279Y4370D01*
X4298Y4359D01*
X4319Y4353D01*
X4341D01*
X4362Y4359D01*
X4381Y4370D01*
X4396Y4385D01*
X4407Y4404D01*
X4408Y4408D01*
X4786D01*
X4786Y4408D01*
X4797Y4410D01*
X4806Y4416D01*
X5222Y4832D01*
X5998D01*
X6342Y4488D01*
Y2712D01*
X6158Y2528D01*
X5590D01*
X5590Y2528D01*
X5579Y2526D01*
X5570Y2520D01*
X5460Y2410D01*
X5454Y2401D01*
X5452Y2390D01*
X5452Y2390D01*
Y2219D01*
X5432Y2208D01*
X5416Y2192D01*
X5404Y2172D01*
X5398Y2150D01*
Y2126D01*
X5404Y2104D01*
X5416Y2084D01*
X5432Y2068D01*
X5452Y2056D01*
X5474Y2050D01*
X5498D01*
X5520Y2056D01*
X5540Y2068D01*
X5556Y2084D01*
X5568Y2104D01*
X5574Y2126D01*
Y2150D01*
X5568Y2172D01*
X5556Y2192D01*
X5540Y2208D01*
X5520Y2220D01*
X5508Y2223D01*
Y2378D01*
X5602Y2472D01*
X6170D01*
X6170Y2472D01*
X6181Y2474D01*
X6190Y2480D01*
X6390Y2680D01*
X6390Y2680D01*
X6396Y2689D01*
X6398Y2700D01*
Y4500D01*
X6396Y4511D01*
X6390Y4520D01*
X6390Y4520D01*
X6030Y4880D01*
X6021Y4886D01*
X6010Y4888D01*
D02*
G37*
G36*
X2010Y4778D02*
X1990D01*
X1970Y4772D01*
X1952Y4762D01*
X1938Y4748D01*
X1928Y4730D01*
X1922Y4710D01*
Y4691D01*
X1878Y4646D01*
X1103D01*
Y4711D01*
X897D01*
Y4646D01*
X401D01*
Y4688D01*
X219D01*
Y4506D01*
X401D01*
Y4570D01*
X897D01*
Y4505D01*
X1103D01*
Y4570D01*
X1894D01*
X1894Y4570D01*
X1909Y4572D01*
X1921Y4581D01*
X1969Y4628D01*
X1970Y4628D01*
X1990Y4622D01*
X2010D01*
X2030Y4628D01*
X2048Y4638D01*
X2062Y4652D01*
X2072Y4670D01*
X2078Y4690D01*
Y4710D01*
X2072Y4730D01*
X2062Y4748D01*
X2048Y4762D01*
X2030Y4772D01*
X2010Y4778D01*
D02*
G37*
G36*
X4341Y4773D02*
X4319D01*
X4298Y4767D01*
X4279Y4756D01*
X4264Y4741D01*
X4253Y4722D01*
X4247Y4701D01*
Y4679D01*
X4253Y4658D01*
X4264Y4639D01*
X4279Y4624D01*
X4298Y4613D01*
X4319Y4607D01*
X4341D01*
X4362Y4613D01*
X4381Y4624D01*
X4396Y4639D01*
X4407Y4658D01*
X4413Y4679D01*
Y4701D01*
X4407Y4722D01*
X4396Y4741D01*
X4381Y4756D01*
X4362Y4767D01*
X4341Y4773D01*
D02*
G37*
G36*
X3094Y4578D02*
X3022D01*
Y4506D01*
X3094D01*
Y4578D01*
D02*
G37*
G36*
X3178Y4494D02*
X3106D01*
Y4422D01*
X3178D01*
Y4494D01*
D02*
G37*
G36*
X3094D02*
X3022D01*
Y4477D01*
X2936Y4390D01*
X2078D01*
Y4428D01*
X2006D01*
Y4350D01*
X1994D01*
Y4428D01*
X1922D01*
Y4390D01*
X1097D01*
X1096Y4394D01*
X1082Y4417D01*
X1063Y4436D01*
X1040Y4450D01*
X1014Y4457D01*
X1006D01*
Y4354D01*
Y4251D01*
X1014D01*
X1040Y4258D01*
X1063Y4272D01*
X1082Y4291D01*
X1095Y4314D01*
X1922D01*
Y4272D01*
X1972D01*
Y3753D01*
X1942D01*
Y3681D01*
X2020D01*
X2098D01*
Y3753D01*
X2048D01*
Y4272D01*
X2078D01*
Y4314D01*
X2952D01*
X2952Y4314D01*
X2967Y4316D01*
X2979Y4325D01*
X3077Y4422D01*
X3094D01*
Y4494D01*
D02*
G37*
G36*
X994Y4457D02*
X986D01*
X960Y4450D01*
X937Y4436D01*
X918Y4417D01*
X904Y4394D01*
X903Y4387D01*
X390D01*
X383Y4399D01*
X366Y4416D01*
X345Y4428D01*
X322Y4434D01*
X316D01*
Y4343D01*
Y4252D01*
X322D01*
X345Y4258D01*
X366Y4270D01*
X383Y4287D01*
X395Y4308D01*
X396Y4310D01*
X907D01*
X918Y4291D01*
X937Y4272D01*
X960Y4258D01*
X986Y4251D01*
X994D01*
Y4354D01*
Y4457D01*
D02*
G37*
G36*
X304Y4434D02*
X298D01*
X275Y4428D01*
X254Y4416D01*
X237Y4399D01*
X225Y4378D01*
X219Y4355D01*
Y4349D01*
X304D01*
Y4434D01*
D02*
G37*
G36*
X5474Y4345D02*
X5395D01*
Y4298D01*
X4696D01*
X4696Y4298D01*
X4681Y4296D01*
X4669Y4287D01*
X4669Y4287D01*
X4602Y4220D01*
X4403D01*
X4396Y4233D01*
X4381Y4248D01*
X4362Y4259D01*
X4341Y4265D01*
X4336D01*
Y4182D01*
Y4099D01*
X4341D01*
X4362Y4105D01*
X4381Y4116D01*
X4396Y4131D01*
X4403Y4144D01*
X4602D01*
X4609Y4137D01*
Y3347D01*
X4245Y2983D01*
X4228Y2988D01*
X4222D01*
Y2906D01*
X4304D01*
Y2912D01*
X4299Y2929D01*
X4674Y3304D01*
X4683Y3317D01*
X4686Y3331D01*
X4686Y3331D01*
Y4153D01*
X4683Y4167D01*
X4674Y4180D01*
X4681Y4191D01*
X4712Y4222D01*
X5395D01*
Y4175D01*
X5474D01*
Y4260D01*
Y4345D01*
D02*
G37*
G36*
X5565D02*
X5486D01*
Y4266D01*
X5565D01*
Y4345D01*
D02*
G37*
G36*
X304Y4337D02*
X219D01*
Y4331D01*
X225Y4308D01*
X237Y4287D01*
X254Y4270D01*
X275Y4258D01*
X298Y4252D01*
X304D01*
Y4337D01*
D02*
G37*
G36*
X3901Y4649D02*
X3901Y4649D01*
X3211D01*
X3196Y4646D01*
X3184Y4638D01*
X3184Y4638D01*
X3123Y4578D01*
X3106D01*
Y4506D01*
X3178D01*
Y4523D01*
X3227Y4572D01*
X3396D01*
X3400Y4560D01*
X3388Y4548D01*
X3378Y4530D01*
X3372Y4510D01*
Y4490D01*
X3378Y4470D01*
X3388Y4452D01*
X3402Y4438D01*
X3420Y4428D01*
X3440Y4422D01*
X3460D01*
X3480Y4428D01*
X3498Y4438D01*
X3512Y4452D01*
X3522Y4470D01*
X3528Y4490D01*
Y4510D01*
X3522Y4530D01*
X3512Y4548D01*
X3500Y4560D01*
X3504Y4572D01*
X3885D01*
X4251Y4207D01*
X4247Y4193D01*
Y4188D01*
X4324D01*
Y4265D01*
X4319D01*
X4305Y4261D01*
X3928Y4638D01*
X3916Y4646D01*
X3914Y4647D01*
X3901Y4649D01*
D02*
G37*
G36*
X5565Y4254D02*
X5486D01*
Y4175D01*
X5565D01*
Y4254D01*
D02*
G37*
G36*
X4324Y4176D02*
X4247D01*
Y4171D01*
X4253Y4150D01*
X4264Y4131D01*
X4279Y4116D01*
X4298Y4105D01*
X4319Y4099D01*
X4324D01*
Y4176D01*
D02*
G37*
G36*
X4413Y4011D02*
X4247D01*
Y3845D01*
X4413D01*
Y4011D01*
D02*
G37*
G36*
X2098Y3669D02*
X2026D01*
Y3597D01*
X2098D01*
Y3669D01*
D02*
G37*
G36*
X2014D02*
X1942D01*
Y3597D01*
X2014D01*
Y3669D01*
D02*
G37*
G36*
X5991Y4345D02*
X5969D01*
X5947Y4339D01*
X5928Y4328D01*
X5912Y4312D01*
X5901Y4293D01*
X5895Y4271D01*
Y4249D01*
X5901Y4227D01*
X5912Y4208D01*
X5928Y4192D01*
X5947Y4181D01*
X5952Y4179D01*
Y3914D01*
X5017Y2979D01*
X5012Y2982D01*
X4990Y2988D01*
X4966D01*
X4944Y2982D01*
X4924Y2970D01*
X4908Y2954D01*
X4896Y2934D01*
X4890Y2912D01*
Y2888D01*
X4896Y2866D01*
X4908Y2846D01*
X4924Y2830D01*
X4944Y2818D01*
X4966Y2812D01*
X4990D01*
X5012Y2818D01*
X5032Y2830D01*
X5048Y2846D01*
X5060Y2866D01*
X5066Y2888D01*
Y2912D01*
X5060Y2934D01*
X5057Y2939D01*
X6000Y3882D01*
X6000Y3882D01*
X6006Y3891D01*
X6008Y3902D01*
X6008Y3902D01*
Y4179D01*
X6013Y4181D01*
X6032Y4192D01*
X6048Y4208D01*
X6059Y4227D01*
X6065Y4249D01*
Y4271D01*
X6059Y4293D01*
X6048Y4312D01*
X6032Y4328D01*
X6013Y4339D01*
X5991Y4345D01*
D02*
G37*
G36*
X4210Y2988D02*
X4204D01*
X4182Y2982D01*
X4162Y2970D01*
X4146Y2954D01*
X4134Y2934D01*
X4128Y2912D01*
Y2906D01*
X4210D01*
Y2988D01*
D02*
G37*
G36*
X6006D02*
X5982D01*
X5960Y2982D01*
X5940Y2970D01*
X5924Y2954D01*
X5912Y2934D01*
X5906Y2912D01*
Y2888D01*
X5912Y2866D01*
X5924Y2846D01*
X5940Y2830D01*
X5960Y2818D01*
X5982Y2812D01*
X6006D01*
X6028Y2818D01*
X6048Y2830D01*
X6064Y2846D01*
X6076Y2866D01*
X6082Y2888D01*
Y2912D01*
X6076Y2934D01*
X6064Y2954D01*
X6048Y2970D01*
X6028Y2982D01*
X6006Y2988D01*
D02*
G37*
G36*
X5752D02*
X5728D01*
X5706Y2982D01*
X5686Y2970D01*
X5670Y2954D01*
X5658Y2934D01*
X5652Y2912D01*
Y2888D01*
X5658Y2866D01*
X5670Y2846D01*
X5686Y2830D01*
X5706Y2818D01*
X5728Y2812D01*
X5752D01*
X5774Y2818D01*
X5794Y2830D01*
X5810Y2846D01*
X5822Y2866D01*
X5828Y2888D01*
Y2912D01*
X5822Y2934D01*
X5810Y2954D01*
X5794Y2970D01*
X5774Y2982D01*
X5752Y2988D01*
D02*
G37*
G36*
X5498D02*
X5474D01*
X5452Y2982D01*
X5432Y2970D01*
X5416Y2954D01*
X5404Y2934D01*
X5398Y2912D01*
Y2888D01*
X5404Y2866D01*
X5416Y2846D01*
X5432Y2830D01*
X5452Y2818D01*
X5474Y2812D01*
X5498D01*
X5520Y2818D01*
X5540Y2830D01*
X5556Y2846D01*
X5568Y2866D01*
X5574Y2888D01*
Y2912D01*
X5568Y2934D01*
X5556Y2954D01*
X5540Y2970D01*
X5520Y2982D01*
X5498Y2988D01*
D02*
G37*
G36*
X5244D02*
X5220D01*
X5198Y2982D01*
X5178Y2970D01*
X5162Y2954D01*
X5150Y2934D01*
X5144Y2912D01*
Y2888D01*
X5150Y2866D01*
X5162Y2846D01*
X5178Y2830D01*
X5198Y2818D01*
X5220Y2812D01*
X5244D01*
X5266Y2818D01*
X5286Y2830D01*
X5302Y2846D01*
X5314Y2866D01*
X5320Y2888D01*
Y2912D01*
X5314Y2934D01*
X5302Y2954D01*
X5286Y2970D01*
X5266Y2982D01*
X5244Y2988D01*
D02*
G37*
G36*
X4736D02*
X4712D01*
X4690Y2982D01*
X4670Y2970D01*
X4654Y2954D01*
X4642Y2934D01*
X4636Y2912D01*
Y2888D01*
X4642Y2866D01*
X4654Y2846D01*
X4670Y2830D01*
X4690Y2818D01*
X4712Y2812D01*
X4736D01*
X4758Y2818D01*
X4778Y2830D01*
X4794Y2846D01*
X4806Y2866D01*
X4812Y2888D01*
Y2912D01*
X4806Y2934D01*
X4794Y2954D01*
X4778Y2970D01*
X4758Y2982D01*
X4736Y2988D01*
D02*
G37*
G36*
X4482D02*
X4458D01*
X4436Y2982D01*
X4416Y2970D01*
X4400Y2954D01*
X4388Y2934D01*
X4382Y2912D01*
Y2888D01*
X4388Y2866D01*
X4400Y2846D01*
X4416Y2830D01*
X4436Y2818D01*
X4458Y2812D01*
X4482D01*
X4504Y2818D01*
X4524Y2830D01*
X4540Y2846D01*
X4552Y2866D01*
X4558Y2888D01*
Y2912D01*
X4552Y2934D01*
X4540Y2954D01*
X4524Y2970D01*
X4504Y2982D01*
X4482Y2988D01*
D02*
G37*
G36*
X4068Y3783D02*
X4052D01*
X4036Y3776D01*
X4024Y3764D01*
X4017Y3748D01*
Y3737D01*
X3942Y3662D01*
X3936Y3653D01*
X3934Y3642D01*
X3934Y3642D01*
Y2983D01*
X3928Y2982D01*
X3908Y2970D01*
X3892Y2954D01*
X3880Y2934D01*
X3874Y2912D01*
Y2888D01*
X3880Y2866D01*
X3892Y2846D01*
X3908Y2830D01*
X3928Y2818D01*
X3950Y2812D01*
X3974D01*
X3996Y2818D01*
X4016Y2830D01*
X4032Y2846D01*
X4044Y2866D01*
X4050Y2888D01*
Y2912D01*
X4044Y2934D01*
X4032Y2954D01*
X4016Y2970D01*
X3996Y2982D01*
X3990Y2983D01*
Y3630D01*
X4057Y3697D01*
X4068D01*
X4084Y3704D01*
X4096Y3716D01*
X4103Y3732D01*
Y3748D01*
X4096Y3764D01*
X4084Y3776D01*
X4068Y3783D01*
D02*
G37*
G36*
X3720Y2988D02*
X3696D01*
X3674Y2982D01*
X3654Y2970D01*
X3638Y2954D01*
X3626Y2934D01*
X3620Y2912D01*
Y2888D01*
X3626Y2866D01*
X3638Y2846D01*
X3654Y2830D01*
X3674Y2818D01*
X3696Y2812D01*
X3720D01*
X3742Y2818D01*
X3762Y2830D01*
X3778Y2846D01*
X3790Y2866D01*
X3796Y2888D01*
Y2912D01*
X3790Y2934D01*
X3778Y2954D01*
X3762Y2970D01*
X3742Y2982D01*
X3720Y2988D01*
D02*
G37*
G36*
X3466D02*
X3442D01*
X3420Y2982D01*
X3400Y2970D01*
X3384Y2954D01*
X3372Y2934D01*
X3366Y2912D01*
Y2888D01*
X3372Y2866D01*
X3384Y2846D01*
X3400Y2830D01*
X3420Y2818D01*
X3442Y2812D01*
X3466D01*
X3488Y2818D01*
X3508Y2830D01*
X3524Y2846D01*
X3536Y2866D01*
X3542Y2888D01*
Y2912D01*
X3536Y2934D01*
X3524Y2954D01*
X3508Y2970D01*
X3488Y2982D01*
X3466Y2988D01*
D02*
G37*
G36*
X3212D02*
X3188D01*
X3166Y2982D01*
X3146Y2970D01*
X3130Y2954D01*
X3118Y2934D01*
X3112Y2912D01*
Y2888D01*
X3118Y2866D01*
X3130Y2846D01*
X3146Y2830D01*
X3166Y2818D01*
X3188Y2812D01*
X3212D01*
X3234Y2818D01*
X3254Y2830D01*
X3270Y2846D01*
X3282Y2866D01*
X3288Y2888D01*
Y2912D01*
X3282Y2934D01*
X3270Y2954D01*
X3254Y2970D01*
X3234Y2982D01*
X3212Y2988D01*
D02*
G37*
G36*
X2958D02*
X2934D01*
X2912Y2982D01*
X2892Y2970D01*
X2876Y2954D01*
X2864Y2934D01*
X2858Y2912D01*
Y2888D01*
X2864Y2866D01*
X2876Y2846D01*
X2892Y2830D01*
X2912Y2818D01*
X2934Y2812D01*
X2958D01*
X2980Y2818D01*
X3000Y2830D01*
X3016Y2846D01*
X3028Y2866D01*
X3034Y2888D01*
Y2912D01*
X3028Y2934D01*
X3016Y2954D01*
X3000Y2970D01*
X2980Y2982D01*
X2958Y2988D01*
D02*
G37*
G36*
X2704D02*
X2680D01*
X2658Y2982D01*
X2638Y2970D01*
X2622Y2954D01*
X2610Y2934D01*
X2604Y2912D01*
Y2888D01*
X2610Y2866D01*
X2622Y2846D01*
X2638Y2830D01*
X2658Y2818D01*
X2680Y2812D01*
X2704D01*
X2726Y2818D01*
X2746Y2830D01*
X2762Y2846D01*
X2774Y2866D01*
X2780Y2888D01*
Y2912D01*
X2774Y2934D01*
X2762Y2954D01*
X2746Y2970D01*
X2726Y2982D01*
X2704Y2988D01*
D02*
G37*
G36*
X4482Y2226D02*
X4476D01*
Y2144D01*
X4558D01*
Y2150D01*
X4552Y2172D01*
X4540Y2192D01*
X4524Y2208D01*
X4504Y2220D01*
X4482Y2226D01*
D02*
G37*
G36*
X4304Y2894D02*
X4216D01*
X4128D01*
Y2888D01*
X4134Y2866D01*
X4146Y2846D01*
X4162Y2830D01*
X4178Y2821D01*
Y2392D01*
X4178Y2392D01*
X4180Y2377D01*
X4189Y2365D01*
X4387Y2167D01*
X4382Y2150D01*
Y2144D01*
X4464D01*
Y2226D01*
X4458D01*
X4441Y2221D01*
X4254Y2408D01*
Y2821D01*
X4270Y2830D01*
X4286Y2846D01*
X4298Y2866D01*
X4304Y2888D01*
Y2894D01*
D02*
G37*
G36*
X1430Y2280D02*
X1270D01*
Y2120D01*
X1430D01*
Y2280D01*
D02*
G37*
G36*
X6006Y2226D02*
X5982D01*
X5960Y2220D01*
X5940Y2208D01*
X5924Y2192D01*
X5912Y2172D01*
X5906Y2150D01*
Y2126D01*
X5912Y2104D01*
X5924Y2084D01*
X5940Y2068D01*
X5960Y2056D01*
X5982Y2050D01*
X6006D01*
X6028Y2056D01*
X6048Y2068D01*
X6064Y2084D01*
X6076Y2104D01*
X6082Y2126D01*
Y2150D01*
X6076Y2172D01*
X6064Y2192D01*
X6048Y2208D01*
X6028Y2220D01*
X6006Y2226D01*
D02*
G37*
G36*
X5752D02*
X5728D01*
X5706Y2220D01*
X5686Y2208D01*
X5670Y2192D01*
X5658Y2172D01*
X5652Y2150D01*
Y2126D01*
X5658Y2104D01*
X5670Y2084D01*
X5686Y2068D01*
X5706Y2056D01*
X5728Y2050D01*
X5752D01*
X5774Y2056D01*
X5794Y2068D01*
X5810Y2084D01*
X5822Y2104D01*
X5828Y2126D01*
Y2150D01*
X5822Y2172D01*
X5810Y2192D01*
X5794Y2208D01*
X5774Y2220D01*
X5752Y2226D01*
D02*
G37*
G36*
X5244D02*
X5220D01*
X5198Y2220D01*
X5178Y2208D01*
X5162Y2192D01*
X5150Y2172D01*
X5144Y2150D01*
Y2126D01*
X5150Y2104D01*
X5162Y2084D01*
X5178Y2068D01*
X5198Y2056D01*
X5220Y2050D01*
X5244D01*
X5266Y2056D01*
X5286Y2068D01*
X5302Y2084D01*
X5314Y2104D01*
X5320Y2126D01*
Y2150D01*
X5314Y2172D01*
X5302Y2192D01*
X5286Y2208D01*
X5266Y2220D01*
X5244Y2226D01*
D02*
G37*
G36*
X4228D02*
X4204D01*
X4182Y2220D01*
X4162Y2208D01*
X4146Y2192D01*
X4134Y2172D01*
X4128Y2150D01*
Y2126D01*
X4134Y2104D01*
X4146Y2084D01*
X4162Y2068D01*
X4182Y2056D01*
X4204Y2050D01*
X4228D01*
X4250Y2056D01*
X4270Y2068D01*
X4286Y2084D01*
X4298Y2104D01*
X4304Y2126D01*
Y2150D01*
X4298Y2172D01*
X4286Y2192D01*
X4270Y2208D01*
X4250Y2220D01*
X4228Y2226D01*
D02*
G37*
G36*
X3720D02*
X3696D01*
X3674Y2220D01*
X3654Y2208D01*
X3638Y2192D01*
X3626Y2172D01*
X3620Y2150D01*
Y2126D01*
X3626Y2104D01*
X3629Y2099D01*
X3508Y1978D01*
X3330D01*
X3330Y1978D01*
X3319Y1976D01*
X3310Y1970D01*
X2810Y1470D01*
X2804Y1461D01*
X2802Y1450D01*
X2802Y1450D01*
Y1288D01*
X2335Y821D01*
X2332Y823D01*
X2311Y829D01*
X2289D01*
X2268Y823D01*
X2249Y812D01*
X2234Y797D01*
X2223Y778D01*
X2217Y757D01*
Y735D01*
X2223Y714D01*
X2234Y695D01*
X2249Y680D01*
X2268Y669D01*
X2289Y663D01*
X2311D01*
X2332Y669D01*
X2351Y680D01*
X2366Y695D01*
X2377Y714D01*
X2383Y735D01*
Y757D01*
X2377Y778D01*
X2375Y781D01*
X2850Y1256D01*
X2850Y1256D01*
X2856Y1265D01*
X2858Y1276D01*
X2858Y1276D01*
Y1438D01*
X3342Y1922D01*
X3520D01*
X3520Y1922D01*
X3531Y1924D01*
X3540Y1930D01*
X3669Y2059D01*
X3674Y2056D01*
X3696Y2050D01*
X3720D01*
X3742Y2056D01*
X3762Y2068D01*
X3778Y2084D01*
X3790Y2104D01*
X3796Y2126D01*
Y2150D01*
X3790Y2172D01*
X3778Y2192D01*
X3762Y2208D01*
X3742Y2220D01*
X3720Y2226D01*
D02*
G37*
G36*
X3466D02*
X3442D01*
X3420Y2220D01*
X3400Y2208D01*
X3384Y2192D01*
X3372Y2172D01*
X3366Y2150D01*
Y2126D01*
X3372Y2104D01*
X3384Y2084D01*
X3400Y2068D01*
X3420Y2056D01*
X3442Y2050D01*
X3466D01*
X3488Y2056D01*
X3508Y2068D01*
X3524Y2084D01*
X3536Y2104D01*
X3542Y2126D01*
Y2150D01*
X3536Y2172D01*
X3524Y2192D01*
X3508Y2208D01*
X3488Y2220D01*
X3466Y2226D01*
D02*
G37*
G36*
X3212D02*
X3188D01*
X3166Y2220D01*
X3146Y2208D01*
X3130Y2192D01*
X3118Y2172D01*
X3112Y2150D01*
Y2126D01*
X3118Y2104D01*
X3130Y2084D01*
X3146Y2068D01*
X3166Y2056D01*
X3188Y2050D01*
X3212D01*
X3234Y2056D01*
X3254Y2068D01*
X3270Y2084D01*
X3282Y2104D01*
X3288Y2126D01*
Y2150D01*
X3282Y2172D01*
X3270Y2192D01*
X3254Y2208D01*
X3234Y2220D01*
X3212Y2226D01*
D02*
G37*
G36*
X2958D02*
X2934D01*
X2912Y2220D01*
X2892Y2208D01*
X2876Y2192D01*
X2864Y2172D01*
X2858Y2150D01*
Y2126D01*
X2864Y2104D01*
X2876Y2084D01*
X2892Y2068D01*
X2912Y2056D01*
X2934Y2050D01*
X2958D01*
X2980Y2056D01*
X3000Y2068D01*
X3016Y2084D01*
X3028Y2104D01*
X3034Y2126D01*
Y2150D01*
X3028Y2172D01*
X3016Y2192D01*
X3000Y2208D01*
X2980Y2220D01*
X2958Y2226D01*
D02*
G37*
G36*
X2780D02*
X2604D01*
Y2050D01*
X2780D01*
Y2226D01*
D02*
G37*
G36*
X3974D02*
X3950D01*
X3928Y2220D01*
X3908Y2208D01*
X3892Y2192D01*
X3880Y2172D01*
X3874Y2150D01*
Y2126D01*
X3880Y2104D01*
X3892Y2084D01*
X3908Y2068D01*
X3928Y2056D01*
X3934Y2055D01*
Y1964D01*
X3818Y1848D01*
X3570D01*
X3570Y1848D01*
X3559Y1846D01*
X3550Y1840D01*
X3183Y1473D01*
X3181Y1475D01*
X3161Y1480D01*
X3139D01*
X3119Y1475D01*
X3101Y1464D01*
X3086Y1449D01*
X3075Y1431D01*
X3070Y1411D01*
Y1389D01*
X3075Y1369D01*
X3086Y1351D01*
X3101Y1336D01*
X3119Y1325D01*
X3139Y1320D01*
X3161D01*
X3181Y1325D01*
X3199Y1336D01*
X3214Y1351D01*
X3225Y1369D01*
X3230Y1389D01*
Y1411D01*
X3225Y1431D01*
X3223Y1433D01*
X3582Y1792D01*
X3830D01*
X3830Y1792D01*
X3841Y1794D01*
X3850Y1800D01*
X3982Y1932D01*
X3982Y1932D01*
X3988Y1941D01*
X3990Y1952D01*
X3990Y1952D01*
Y2055D01*
X3996Y2056D01*
X4016Y2068D01*
X4032Y2084D01*
X4044Y2104D01*
X4050Y2126D01*
Y2150D01*
X4044Y2172D01*
X4032Y2192D01*
X4016Y2208D01*
X3996Y2220D01*
X3974Y2226D01*
D02*
G37*
G36*
X5056Y1478D02*
X5052D01*
Y1406D01*
X5124D01*
Y1410D01*
X5118Y1430D01*
X5108Y1448D01*
X5094Y1462D01*
X5076Y1472D01*
X5056Y1478D01*
D02*
G37*
G36*
X4558Y2132D02*
X4470D01*
X4382D01*
Y2126D01*
X4388Y2104D01*
X4400Y2084D01*
X4416Y2068D01*
X4432Y2059D01*
Y1976D01*
X4432Y1976D01*
X4434Y1961D01*
X4443Y1949D01*
X4971Y1421D01*
X4968Y1410D01*
Y1406D01*
X5040D01*
Y1478D01*
X5036D01*
X5025Y1475D01*
X4508Y1992D01*
Y2059D01*
X4524Y2068D01*
X4540Y2084D01*
X4552Y2104D01*
X4558Y2126D01*
Y2132D01*
D02*
G37*
G36*
X1014Y4203D02*
X986D01*
X960Y4196D01*
X937Y4182D01*
X918Y4163D01*
X904Y4140D01*
X897Y4114D01*
Y4086D01*
X904Y4060D01*
X918Y4037D01*
X937Y4018D01*
X960Y4004D01*
X986Y3997D01*
X1014D01*
X1040Y4004D01*
X1041Y4005D01*
X1748Y3298D01*
X1748Y3298D01*
X1760Y3289D01*
X1775Y3287D01*
X1952D01*
X1958Y3277D01*
X1972Y3263D01*
X1990Y3253D01*
X2010Y3247D01*
X2030D01*
X2041Y3250D01*
X2262Y3029D01*
Y1327D01*
X2249Y1320D01*
X2234Y1305D01*
X2223Y1286D01*
X2222Y1283D01*
X1892D01*
X1777Y1397D01*
X1765Y1406D01*
X1750Y1408D01*
X1750Y1408D01*
X620D01*
X620Y1408D01*
X605Y1406D01*
X593Y1397D01*
X593Y1397D01*
X500Y1305D01*
X488Y1309D01*
Y2130D01*
X499Y2136D01*
X514Y2151D01*
X525Y2169D01*
X530Y2189D01*
Y2211D01*
X525Y2231D01*
X514Y2249D01*
X499Y2264D01*
X481Y2275D01*
X461Y2280D01*
X439D01*
X419Y2275D01*
X401Y2264D01*
X386Y2249D01*
X375Y2231D01*
X370Y2211D01*
Y2189D01*
X375Y2169D01*
X386Y2151D01*
X401Y2136D01*
X412Y2130D01*
Y1270D01*
X401Y1264D01*
X386Y1249D01*
X375Y1231D01*
X370Y1211D01*
Y1189D01*
X375Y1169D01*
X386Y1151D01*
X401Y1136D01*
X412Y1130D01*
Y796D01*
X412Y796D01*
X414Y781D01*
X423Y769D01*
X563Y628D01*
Y517D01*
X729D01*
Y683D01*
X618D01*
X488Y812D01*
Y1130D01*
X499Y1136D01*
X514Y1151D01*
X525Y1169D01*
X530Y1189D01*
Y1211D01*
X527Y1223D01*
X636Y1332D01*
X1734D01*
X1848Y1217D01*
X1848Y1217D01*
X1861Y1209D01*
X1876Y1206D01*
X1876Y1206D01*
X2232D01*
X2234Y1203D01*
X2249Y1188D01*
X2268Y1177D01*
X2289Y1171D01*
X2311D01*
X2332Y1177D01*
X2351Y1188D01*
X2366Y1203D01*
X2377Y1222D01*
X2383Y1243D01*
Y1265D01*
X2377Y1286D01*
X2366Y1305D01*
X2351Y1320D01*
X2338Y1327D01*
Y3045D01*
X2336Y3060D01*
X2327Y3072D01*
X2327Y3072D01*
X2095Y3304D01*
X2098Y3315D01*
Y3335D01*
X2092Y3355D01*
X2082Y3373D01*
X2068Y3387D01*
X2050Y3397D01*
X2030Y3403D01*
X2010D01*
X1990Y3397D01*
X1972Y3387D01*
X1958Y3373D01*
X1952Y3363D01*
X1791D01*
X1095Y4059D01*
X1096Y4060D01*
X1103Y4086D01*
Y4114D01*
X1096Y4140D01*
X1082Y4163D01*
X1063Y4182D01*
X1040Y4196D01*
X1014Y4203D01*
D02*
G37*
G36*
X4990Y2226D02*
X4966D01*
X4944Y2220D01*
X4924Y2208D01*
X4908Y2192D01*
X4896Y2172D01*
X4890Y2150D01*
Y2126D01*
X4896Y2104D01*
X4908Y2084D01*
X4924Y2068D01*
X4944Y2056D01*
X4966Y2050D01*
X4990D01*
X5012Y2056D01*
X5017Y2059D01*
X5526Y1550D01*
Y1478D01*
X5476D01*
Y1322D01*
X5632D01*
Y1372D01*
X5938D01*
X6090Y1220D01*
X6090Y1220D01*
X6099Y1214D01*
X6110Y1212D01*
X6110Y1212D01*
X6427D01*
Y1171D01*
X6573D01*
Y1317D01*
X6427D01*
Y1268D01*
X6121D01*
X5969Y1420D01*
X5960Y1426D01*
X5949Y1428D01*
X5949Y1428D01*
X5632D01*
Y1478D01*
X5582D01*
Y1562D01*
X5580Y1573D01*
X5574Y1582D01*
X5057Y2099D01*
X5060Y2104D01*
X5066Y2126D01*
Y2150D01*
X5060Y2172D01*
X5048Y2192D01*
X5032Y2208D01*
X5012Y2220D01*
X4990Y2226D01*
D02*
G37*
G36*
X2294Y1083D02*
X2289D01*
X2268Y1077D01*
X2249Y1066D01*
X2234Y1051D01*
X2227Y1038D01*
X1770D01*
X1770Y1038D01*
X1755Y1036D01*
X1743Y1027D01*
X1549Y833D01*
X1349D01*
X1349Y833D01*
X1334Y831D01*
X1322Y822D01*
X1322Y822D01*
X1179Y679D01*
X1165Y683D01*
X1160D01*
Y606D01*
X1237D01*
Y611D01*
X1233Y625D01*
X1365Y757D01*
X1514D01*
X1527Y754D01*
X1529Y739D01*
X1538Y726D01*
X1971Y293D01*
X1971Y293D01*
X1984Y284D01*
X1999Y282D01*
X1999Y282D01*
X3770D01*
X3770Y282D01*
X3785Y284D01*
X3797Y293D01*
X4024Y520D01*
X4044D01*
Y594D01*
X3970D01*
Y574D01*
X3754Y358D01*
X2015D01*
X1603Y770D01*
Y779D01*
X1786Y962D01*
X2227D01*
X2234Y949D01*
X2249Y934D01*
X2268Y923D01*
X2289Y917D01*
X2294D01*
Y1000D01*
Y1083D01*
D02*
G37*
G36*
X2311D02*
X2306D01*
Y1006D01*
X2383D01*
Y1011D01*
X2377Y1032D01*
X2366Y1051D01*
X2351Y1066D01*
X2332Y1077D01*
X2311Y1083D01*
D02*
G37*
G36*
X4130Y1480D02*
X3970D01*
Y1320D01*
X4022D01*
Y1092D01*
X3948Y1018D01*
X3280D01*
X3269Y1016D01*
X3260Y1010D01*
X3260Y1010D01*
X3130Y880D01*
X3124Y871D01*
X3122Y860D01*
X3122Y860D01*
Y675D01*
X3119Y675D01*
X3101Y664D01*
X3086Y649D01*
X3075Y631D01*
X3075Y628D01*
X2408D01*
X2397Y626D01*
X2388Y620D01*
X2388Y620D01*
X2343Y575D01*
X2217D01*
Y409D01*
X2383D01*
Y535D01*
X2420Y572D01*
X3075D01*
X3075Y569D01*
X3086Y551D01*
X3101Y536D01*
X3119Y525D01*
X3139Y520D01*
X3161D01*
X3181Y525D01*
X3199Y536D01*
X3214Y551D01*
X3225Y569D01*
X3230Y589D01*
Y611D01*
X3225Y631D01*
X3214Y649D01*
X3199Y664D01*
X3181Y675D01*
X3178Y675D01*
Y848D01*
X3292Y962D01*
X3960D01*
X3960Y962D01*
X3971Y964D01*
X3980Y970D01*
X4070Y1060D01*
X4070Y1060D01*
X4076Y1069D01*
X4078Y1080D01*
X4078Y1080D01*
Y1320D01*
X4130D01*
Y1480D01*
D02*
G37*
G36*
X2383Y994D02*
X2306D01*
Y917D01*
X2311D01*
X2332Y923D01*
X2351Y934D01*
X2366Y949D01*
X2377Y968D01*
X2383Y989D01*
Y994D01*
D02*
G37*
G36*
X4736Y2226D02*
X4712D01*
X4690Y2220D01*
X4670Y2208D01*
X4654Y2192D01*
X4642Y2172D01*
X4636Y2150D01*
Y2126D01*
X4642Y2104D01*
X4654Y2084D01*
X4670Y2068D01*
X4690Y2056D01*
X4696Y2055D01*
Y1946D01*
X4696Y1946D01*
X4698Y1935D01*
X4704Y1926D01*
X5526Y1104D01*
Y678D01*
X5476D01*
Y522D01*
X5632D01*
Y572D01*
X6344D01*
X6344Y572D01*
X6355Y574D01*
X6364Y580D01*
X6472Y688D01*
X6490Y683D01*
X6510D01*
X6528Y688D01*
X6545Y698D01*
X6558Y711D01*
X6568Y728D01*
X6573Y746D01*
Y766D01*
X6568Y784D01*
X6558Y801D01*
X6545Y814D01*
X6528Y824D01*
X6510Y829D01*
X6490D01*
X6472Y824D01*
X6455Y814D01*
X6442Y801D01*
X6432Y784D01*
X6427Y766D01*
Y746D01*
X6432Y728D01*
X6332Y628D01*
X5632D01*
Y678D01*
X5582D01*
Y1116D01*
X5582Y1116D01*
X5580Y1127D01*
X5574Y1136D01*
X5574Y1136D01*
X4752Y1958D01*
Y2055D01*
X4758Y2056D01*
X4778Y2068D01*
X4794Y2084D01*
X4806Y2104D01*
X4812Y2126D01*
Y2150D01*
X4806Y2172D01*
X4794Y2192D01*
X4778Y2208D01*
X4758Y2220D01*
X4736Y2226D01*
D02*
G37*
G36*
X1430Y1280D02*
X1270D01*
Y1120D01*
X1312D01*
Y1066D01*
X925Y679D01*
X911Y683D01*
X889D01*
X868Y677D01*
X849Y666D01*
X834Y651D01*
X823Y632D01*
X817Y611D01*
Y589D01*
X823Y568D01*
X834Y549D01*
X849Y534D01*
X868Y523D01*
X889Y517D01*
X911D01*
X932Y523D01*
X951Y534D01*
X966Y549D01*
X977Y568D01*
X983Y589D01*
Y611D01*
X979Y625D01*
X1377Y1023D01*
X1386Y1035D01*
X1388Y1050D01*
Y1120D01*
X1430D01*
Y1280D01*
D02*
G37*
G36*
X5124Y1394D02*
X5046D01*
X4968D01*
Y1390D01*
X4974Y1370D01*
X4984Y1352D01*
X4998Y1338D01*
X5008Y1332D01*
Y668D01*
X4998Y662D01*
X4984Y648D01*
X4978Y638D01*
X4130D01*
Y680D01*
X4056D01*
Y600D01*
X4050D01*
D01*
X4056D01*
Y520D01*
X4130D01*
Y562D01*
X4978D01*
X4984Y552D01*
X4998Y538D01*
X5016Y528D01*
X5036Y522D01*
X5040D01*
Y600D01*
X5046D01*
Y606D01*
X5124D01*
Y610D01*
X5118Y630D01*
X5108Y648D01*
X5094Y662D01*
X5084Y668D01*
Y1332D01*
X5094Y1338D01*
X5108Y1352D01*
X5118Y1370D01*
X5124Y1390D01*
Y1394D01*
D02*
G37*
G36*
X1148Y683D02*
X1143D01*
X1122Y677D01*
X1103Y666D01*
X1088Y651D01*
X1077Y632D01*
X1071Y611D01*
Y606D01*
X1148D01*
Y683D01*
D02*
G37*
G36*
X4044Y680D02*
X3970D01*
Y606D01*
X4044D01*
Y680D01*
D02*
G37*
G36*
X5124Y594D02*
X5052D01*
Y522D01*
X5056D01*
X5076Y528D01*
X5094Y538D01*
X5108Y552D01*
X5118Y570D01*
X5124Y590D01*
Y594D01*
D02*
G37*
G36*
X1237Y594D02*
X1160D01*
Y517D01*
X1165D01*
X1186Y523D01*
X1205Y534D01*
X1220Y549D01*
X1231Y568D01*
X1237Y589D01*
Y594D01*
D02*
G37*
G36*
X1148D02*
X1071D01*
Y589D01*
X1077Y568D01*
X1088Y549D01*
X1103Y534D01*
X1122Y523D01*
X1143Y517D01*
X1148D01*
Y594D01*
D02*
G37*
%LPD*%
D27*
X310Y4597D02*
D03*
D28*
Y4343D02*
D03*
D30*
X2020Y3675D02*
D03*
X2000Y4350D02*
D03*
D31*
X5046Y600D02*
D03*
Y1400D02*
D03*
X2020Y3325D02*
D03*
X2000Y4700D02*
D03*
X3450Y4500D02*
D03*
D32*
X5554Y600D02*
D03*
Y1400D02*
D03*
X3100Y4500D02*
D03*
D34*
X5980Y4260D02*
D03*
D35*
X5480D02*
D03*
D37*
X1000Y4100D02*
X1775Y3325D01*
X2020D01*
X1770Y1000D02*
X2300D01*
X1565Y795D02*
X1770Y1000D01*
X620Y1370D02*
X1750D01*
X1876Y1244D01*
X450Y1200D02*
X620Y1370D01*
X1876Y1244D02*
X2290D01*
X2020Y3325D02*
X2300Y3045D01*
Y1254D02*
Y3045D01*
X2290Y1244D02*
X2300Y1254D01*
X3770Y320D02*
X4050Y600D01*
X1999Y320D02*
X3770D01*
X1565Y754D02*
X1999Y320D01*
X3100Y4500D02*
X3211Y4611D01*
X3901D01*
X4330Y4182D01*
X2952Y4352D02*
X3100Y4500D01*
X1349Y795D02*
X1565D01*
Y754D02*
Y795D01*
X4696Y4260D02*
X5480D01*
X1998Y4352D02*
X2010Y4340D01*
X4216Y2392D02*
Y2900D01*
X4470Y1976D02*
Y2138D01*
X1998Y4352D02*
X2952D01*
X4216Y2900D02*
X4647Y3331D01*
X4470Y1976D02*
X5046Y1400D01*
X4216Y2392D02*
X4470Y2138D01*
X4618Y4182D02*
X4696Y4260D01*
X4647Y3331D02*
Y4153D01*
X1154Y600D02*
X1349Y795D01*
X4618Y4182D02*
X4647Y4153D01*
X5046Y600D02*
Y1400D01*
X4330Y4182D02*
X4618D01*
X4050Y600D02*
X5046D01*
X2010Y3685D02*
X2020Y3675D01*
X2010Y3685D02*
Y4340D01*
X1002Y4352D02*
X1998D01*
X1000Y4354D02*
X1002Y4352D01*
X994Y4349D02*
X1000Y4354D01*
X315Y4349D02*
X994D01*
X310Y4343D02*
X315Y4349D01*
X900Y600D02*
X1350Y1050D01*
Y1200D01*
X450D02*
Y2200D01*
Y796D02*
X646Y600D01*
X450Y796D02*
Y1200D01*
X1000Y4608D02*
X1894D01*
X1986Y4700D01*
X2000D01*
X310Y4597D02*
X321Y4608D01*
X1000D01*
D38*
X5980Y3902D02*
Y4260D01*
X4978Y2900D02*
X5980Y3902D01*
X2408Y600D02*
X3150D01*
X2300Y492D02*
X2408Y600D01*
X2300Y746D02*
X2830Y1276D01*
Y1450D01*
X3330Y1950D01*
X3520D01*
X3708Y2138D01*
X5554Y600D02*
Y1116D01*
X4724Y1946D02*
X5554Y1116D01*
X4724Y1946D02*
Y2138D01*
X3962Y2900D02*
Y3642D01*
X4060Y3740D01*
X3150Y1400D02*
X3570Y1820D01*
X3962Y1952D02*
Y2138D01*
X3570Y1820D02*
X3830D01*
X3962Y1952D01*
X5949Y1400D02*
X6110Y1240D01*
X6496D01*
X5554Y1400D02*
X5949D01*
X5554Y600D02*
X6344D01*
X6500Y756D01*
X5554Y1400D02*
Y1562D01*
X4978Y2138D02*
X5554Y1562D01*
X6496Y1240D02*
X6500Y1244D01*
X4050Y1080D02*
Y1400D01*
X3960Y990D02*
X4050Y1080D01*
X3280Y990D02*
X3960D01*
X3150Y600D02*
Y860D01*
X3280Y990D01*
X5480Y2144D02*
X5486Y2138D01*
X5480Y2144D02*
Y2390D01*
X5590Y2500D01*
X6170D01*
X6370Y2700D02*
Y4500D01*
X6170Y2500D02*
X6370Y2700D01*
X6010Y4860D02*
X6370Y4500D01*
X5210Y4860D02*
X6010D01*
X4330Y4436D02*
X4786D01*
X5210Y4860D01*
D39*
X4216Y2138D02*
D03*
X4724Y2900D02*
D03*
X2946Y2138D02*
D03*
X3200D02*
D03*
X3454D02*
D03*
X3708D02*
D03*
X3962D02*
D03*
X4470D02*
D03*
X4724D02*
D03*
X4978D02*
D03*
X5232D02*
D03*
X5486D02*
D03*
X5740D02*
D03*
X5994D02*
D03*
X2692Y2900D02*
D03*
X2946D02*
D03*
X3200D02*
D03*
X3454D02*
D03*
X3708D02*
D03*
X3962D02*
D03*
X4216D02*
D03*
X4470D02*
D03*
X4978D02*
D03*
X5232D02*
D03*
X5486D02*
D03*
X5740D02*
D03*
X5994D02*
D03*
D40*
X1000Y4100D02*
D03*
Y4354D02*
D03*
D41*
X4330Y4436D02*
D03*
Y4182D02*
D03*
Y4690D02*
D03*
X2300Y1254D02*
D03*
Y746D02*
D03*
Y1000D02*
D03*
X900Y600D02*
D03*
X1154D02*
D03*
D42*
X4330Y3928D02*
D03*
X2300Y492D02*
D03*
D43*
X3150Y1400D02*
D03*
Y600D02*
D03*
X450Y1200D02*
D03*
Y2200D02*
D03*
D44*
X4050Y1400D02*
D03*
Y600D02*
D03*
X1350Y1200D02*
D03*
Y2200D02*
D03*
D45*
X6500Y756D02*
D03*
D46*
Y1244D02*
D03*
D47*
X646Y600D02*
D03*
D48*
X1000Y4608D02*
D03*
D49*
X2692Y2138D02*
D03*
D50*
X4060Y3740D02*
D03*
M02*
