G04*
G04 #@! TF.GenerationSoftware,Altium Limited,Altium Designer,23.4.1 (23)*
G04*
G04 Layer_Color=65535*
%FSLAX42Y42*%
%MOMM*%
G71*
G04*
G04 #@! TF.SameCoordinates,1A2849D8-77FB-4551-9540-3E4ADE2B4543*
G04*
G04*
G04 #@! TF.FilePolarity,Positive*
G04*
G01*
G75*
%ADD10C,0.25*%
%ADD11C,0.20*%
%ADD12C,0.15*%
%ADD13C,0.60*%
%ADD14C,0.25*%
D10*
X6512Y1633D02*
G03*
X6512Y1633I-12J0D01*
G01*
X5727Y604D02*
G03*
X5727Y604I-12J0D01*
G01*
Y1404D02*
G03*
X5727Y1404I-12J0D01*
G01*
X322Y4783D02*
G03*
X322Y4783I-12J0D01*
G01*
X907Y4809D02*
G03*
X907Y4809I-12J0D01*
G01*
X2575Y2138D02*
G03*
X2575Y2138I-12J0D01*
G01*
D11*
X6732Y1485D02*
G03*
X6650Y1568I-82J0D01*
G01*
X6350Y1568D02*
G03*
X6267Y1485I0J-82D01*
G01*
Y515D02*
G03*
X6350Y432I82J-0D01*
G01*
X6650Y432D02*
G03*
X6732Y515I0J82D01*
G01*
X2573Y2456D02*
G03*
X2573Y2583I0J63D01*
G01*
X4203Y3788D02*
X4457D01*
Y4829D01*
X4203D02*
X4457D01*
X4203Y3788D02*
Y4829D01*
X3285Y1280D02*
Y1333D01*
X3915Y1467D02*
Y1520D01*
X3285Y1467D02*
Y1520D01*
X3915Y1280D02*
Y1333D01*
X3285Y1280D02*
X3915D01*
X3285Y1520D02*
X3915D01*
X6267Y515D02*
Y1485D01*
X6732Y515D02*
Y1485D01*
X6350Y432D02*
X6650D01*
X6350Y1568D02*
X6650D01*
X6350Y1568D02*
X6350Y1568D01*
X4944Y396D02*
Y803D01*
X5656Y396D02*
Y803D01*
X4944D02*
X5656D01*
X4944Y396D02*
X5656D01*
X4944Y1197D02*
Y1603D01*
X5656Y1197D02*
Y1603D01*
X4944D02*
X5656D01*
X4944Y1197D02*
X5656D01*
X3285Y480D02*
Y533D01*
X3915Y667D02*
Y720D01*
X3285Y667D02*
Y720D01*
X3915Y480D02*
Y533D01*
X3285Y480D02*
X3915D01*
X3285Y720D02*
X3915D01*
X2173Y353D02*
Y1394D01*
X2427D01*
Y353D02*
Y1394D01*
X2173Y353D02*
X2427D01*
X585Y1080D02*
Y1133D01*
X1215Y1267D02*
Y1320D01*
X585Y1267D02*
Y1320D01*
X1215Y1080D02*
Y1133D01*
X585Y1080D02*
X1215D01*
X585Y1320D02*
X1215D01*
X1294Y473D02*
Y727D01*
X507Y473D02*
Y727D01*
Y473D02*
X1294D01*
X507Y727D02*
X1294D01*
X585Y2080D02*
Y2133D01*
X1215Y2267D02*
Y2320D01*
X585Y2267D02*
Y2320D01*
X1215Y2080D02*
Y2133D01*
X585Y2080D02*
X1215D01*
X585Y2320D02*
X1215D01*
X443Y4197D02*
Y4743D01*
X176Y4197D02*
X443D01*
X176D02*
Y4743D01*
X443D01*
X1290Y3834D02*
Y4874D01*
X830Y3834D02*
X1290D01*
X830D02*
Y4874D01*
Y4874D02*
X1290D01*
X1240Y3834D02*
Y4874D01*
X1770Y3828D02*
X2270D01*
X1750Y4197D02*
X2250D01*
X2948Y4250D02*
Y4750D01*
X2573Y2254D02*
X6113D01*
X2573Y2784D02*
X6113D01*
X2573Y2254D02*
Y2456D01*
Y2583D02*
Y2784D01*
X6113Y2254D02*
Y2784D01*
X6330Y3750D02*
Y4770D01*
D12*
X2445Y3500D02*
G03*
X2445Y3500I-425J0D01*
G01*
X2425Y4525D02*
G03*
X2425Y4525I-425J0D01*
G01*
X3700Y4500D02*
G03*
X3700Y4500I-425J0D01*
G01*
X6530Y4260D02*
G03*
X6530Y4260I-800J0D01*
G01*
D13*
X2703Y2354D02*
G03*
X2703Y2354I-30J0D01*
G01*
D14*
X6403Y1660D02*
Y1643D01*
X6437Y1610D01*
X6470Y1643D01*
Y1660D01*
X6437Y1610D02*
Y1560D01*
X6503D02*
X6537D01*
X6520D01*
Y1660D01*
X6503Y1643D01*
X907Y4950D02*
Y4867D01*
X923Y4850D01*
X957D01*
X973Y4867D01*
Y4950D01*
X1073Y4850D02*
X1007D01*
X1073Y4917D01*
Y4933D01*
X1057Y4950D01*
X1023D01*
X1007Y4933D01*
X3918Y2606D02*
Y2479D01*
X3944Y2454D01*
X3995D01*
X4020Y2479D01*
Y2606D01*
X4071Y2454D02*
X4122D01*
X4096D01*
Y2606D01*
X4071Y2581D01*
X807Y2400D02*
Y2500D01*
X857D01*
X873Y2483D01*
Y2450D01*
X857Y2433D01*
X807D01*
X840D02*
X873Y2400D01*
X957D02*
Y2500D01*
X907Y2450D01*
X973D01*
X3497Y740D02*
Y840D01*
X3547D01*
X3563Y823D01*
Y790D01*
X3547Y773D01*
X3497D01*
X3530D02*
X3563Y740D01*
X3597Y823D02*
X3613Y840D01*
X3647D01*
X3663Y823D01*
Y807D01*
X3647Y790D01*
X3630D01*
X3647D01*
X3663Y773D01*
Y757D01*
X3647Y740D01*
X3613D01*
X3597Y757D01*
X3517Y1550D02*
Y1650D01*
X3567D01*
X3583Y1633D01*
Y1600D01*
X3567Y1583D01*
X3517D01*
X3550D02*
X3583Y1550D01*
X3683D02*
X3617D01*
X3683Y1617D01*
Y1633D01*
X3667Y1650D01*
X3633D01*
X3617Y1633D01*
X793Y1380D02*
Y1480D01*
X843D01*
X860Y1463D01*
Y1430D01*
X843Y1413D01*
X793D01*
X827D02*
X860Y1380D01*
X893D02*
X927D01*
X910D01*
Y1480D01*
X893Y1463D01*
X5613Y4540D02*
Y4440D01*
X5680D01*
X5780Y4523D02*
X5763Y4540D01*
X5730D01*
X5713Y4523D01*
Y4507D01*
X5730Y4490D01*
X5763D01*
X5780Y4473D01*
Y4457D01*
X5763Y4440D01*
X5730D01*
X5713Y4457D01*
X5813Y4440D02*
X5847D01*
X5830D01*
Y4540D01*
X5813Y4523D01*
X4270Y5031D02*
X4237D01*
X4254D01*
Y4948D01*
X4237Y4931D01*
X4221D01*
X4204Y4948D01*
X4354Y4931D02*
Y5031D01*
X4304Y4981D01*
X4370D01*
X263Y4930D02*
X230D01*
X247D01*
Y4847D01*
X230Y4830D01*
X213D01*
X197Y4847D01*
X297Y4913D02*
X313Y4930D01*
X347D01*
X363Y4913D01*
Y4897D01*
X347Y4880D01*
X330D01*
X347D01*
X363Y4863D01*
Y4847D01*
X347Y4830D01*
X313D01*
X297Y4847D01*
X2233Y1570D02*
X2200D01*
X2217D01*
Y1487D01*
X2200Y1470D01*
X2183D01*
X2167Y1487D01*
X2333Y1470D02*
X2267D01*
X2333Y1537D01*
Y1553D01*
X2317Y1570D01*
X2283D01*
X2267Y1553D01*
X720Y880D02*
X687D01*
X703D01*
Y797D01*
X687Y780D01*
X670D01*
X653Y797D01*
X753Y780D02*
X787D01*
X770D01*
Y880D01*
X753Y863D01*
X5213Y1673D02*
X5197Y1690D01*
X5163D01*
X5147Y1673D01*
Y1607D01*
X5163Y1590D01*
X5197D01*
X5213Y1607D01*
X5313Y1690D02*
X5247D01*
Y1640D01*
X5280Y1657D01*
X5297D01*
X5313Y1640D01*
Y1607D01*
X5297Y1590D01*
X5263D01*
X5247Y1607D01*
X5263Y913D02*
X5247Y930D01*
X5213D01*
X5197Y913D01*
Y847D01*
X5213Y830D01*
X5247D01*
X5263Y847D01*
X5347Y830D02*
Y930D01*
X5297Y880D01*
X5363D01*
X3203Y4853D02*
X3187Y4870D01*
X3153D01*
X3137Y4853D01*
Y4787D01*
X3153Y4770D01*
X3187D01*
X3203Y4787D01*
X3237Y4853D02*
X3253Y4870D01*
X3287D01*
X3303Y4853D01*
Y4837D01*
X3287Y4820D01*
X3270D01*
X3287D01*
X3303Y4803D01*
Y4787D01*
X3287Y4770D01*
X3253D01*
X3237Y4787D01*
X1713Y3733D02*
X1697Y3750D01*
X1663D01*
X1647Y3733D01*
Y3667D01*
X1663Y3650D01*
X1697D01*
X1713Y3667D01*
X1813Y3650D02*
X1747D01*
X1813Y3717D01*
Y3733D01*
X1797Y3750D01*
X1763D01*
X1747Y3733D01*
X2000Y4963D02*
X1983Y4980D01*
X1950D01*
X1933Y4963D01*
Y4897D01*
X1950Y4880D01*
X1983D01*
X2000Y4897D01*
X2033Y4880D02*
X2067D01*
X2050D01*
Y4980D01*
X2033Y4963D01*
M02*
