G04*
G04 #@! TF.GenerationSoftware,Altium Limited,Altium Designer,23.4.1 (23)*
G04*
G04 Layer_Color=255*
%FSLAX42Y42*%
%MOMM*%
G71*
G04*
G04 #@! TF.SameCoordinates,1A2849D8-77FB-4551-9540-3E4ADE2B4543*
G04*
G04*
G04 #@! TF.FilePolarity,Positive*
G04*
G01*
G75*
%ADD27R,1.57X1.57*%
%ADD28C,1.57*%
%ADD30R,1.30X1.30*%
%ADD31C,1.30*%
%ADD32R,1.30X1.30*%
%ADD34C,1.45*%
%ADD35R,1.45X1.45*%
%ADD39C,1.50*%
%ADD40C,1.80*%
%ADD41C,1.40*%
%ADD42R,1.40X1.40*%
%ADD43C,1.35*%
%ADD44R,1.35X1.35*%
%ADD45C,1.20*%
%ADD46R,1.20X1.20*%
%ADD47R,1.40X1.40*%
%ADD48R,1.80X1.80*%
%ADD49R,1.50X1.50*%
D27*
X310Y4597D02*
D03*
D28*
Y4343D02*
D03*
D30*
X2020Y3675D02*
D03*
X2000Y4350D02*
D03*
D31*
X5046Y600D02*
D03*
Y1400D02*
D03*
X2020Y3325D02*
D03*
X2000Y4700D02*
D03*
X3450Y4500D02*
D03*
D32*
X5554Y600D02*
D03*
Y1400D02*
D03*
X3100Y4500D02*
D03*
D34*
X5980Y4260D02*
D03*
D35*
X5480D02*
D03*
D39*
X4216Y2138D02*
D03*
X4724Y2900D02*
D03*
X2946Y2138D02*
D03*
X3200D02*
D03*
X3454D02*
D03*
X3708D02*
D03*
X3962D02*
D03*
X4470D02*
D03*
X4724D02*
D03*
X4978D02*
D03*
X5232D02*
D03*
X5486D02*
D03*
X5740D02*
D03*
X5994D02*
D03*
X2692Y2900D02*
D03*
X2946D02*
D03*
X3200D02*
D03*
X3454D02*
D03*
X3708D02*
D03*
X3962D02*
D03*
X4216D02*
D03*
X4470D02*
D03*
X4978D02*
D03*
X5232D02*
D03*
X5486D02*
D03*
X5740D02*
D03*
X5994D02*
D03*
D40*
X1000Y4100D02*
D03*
Y4354D02*
D03*
D41*
X4330Y4436D02*
D03*
Y4182D02*
D03*
Y4690D02*
D03*
X2300Y1254D02*
D03*
Y746D02*
D03*
Y1000D02*
D03*
X900Y600D02*
D03*
X1154D02*
D03*
D42*
X4330Y3928D02*
D03*
X2300Y492D02*
D03*
D43*
X3150Y1400D02*
D03*
Y600D02*
D03*
X450Y1200D02*
D03*
Y2200D02*
D03*
D44*
X4050Y1400D02*
D03*
Y600D02*
D03*
X1350Y1200D02*
D03*
Y2200D02*
D03*
D45*
X6500Y756D02*
D03*
D46*
Y1244D02*
D03*
D47*
X646Y600D02*
D03*
D48*
X1000Y4608D02*
D03*
D49*
X2692Y2138D02*
D03*
M02*
